# xmcd
#
# Track frame offsets:
#	150
#	9947
#	20367
#	39415
#	52918
#	65142
#	79166
#	92846
#	114190
#	139464
#	151400
#	165015
#
# Disc length: 2494 seconds
#
# Revision: 1
# Processed by: cddbd v1.5.2PL0 Copyright (c) Steve Scherf et al.
# Submitted via: audiograbber 1.83.01
#
DISCID=8809bc0c
DTITLE=Dolly Parton - Singer, Songwriter and Legendary Performer
DYEAR=2007
DGENRE=Country
TTITLE0=Baby I'm Burnin'
TTITLE1=Two Doors Down
TTITLE2=The Grass Is Blue
TTITLE3=Jolene
TTITLE4=9 to 5
TTITLE5=Hello God
TTITLE6=Coat Of Many Colours
TTITLE7=These Old Bones
TTITLE8=Little Sparrow
TTITLE9=God's Coloring Book
TTITLE10=I Will Always Love You
TTITLE11=Travellin' Thru
EXTD=
EXTT0=
EXTT1=
EXTT2=
EXTT3=
EXTT4=
EXTT5=
EXTT6=
EXTT7=
EXTT8=
EXTT9=
EXTT10=
EXTT11=
PLAYORDER=
